<?xml version="1.0" encoding="iso-8859-1"?>
<!-- Uploaded to: SVG Repo, www.svgrepo.com, Generator: SVG Repo Mixer Tools -->
<svg fill="#000000" height="800px" width="800px" version="1.1" id="Layer_1" xmlns="http://www.w3.org/2000/svg" xmlns:xlink="http://www.w3.org/1999/xlink" 
	 viewBox="0 0 512.002 512.002" xml:space="preserve" preserveAspectRatio='none'>
<g>
	<g>
		<path d="M503.469,337.067h-17.382c-2.748-38.903-24.107-68.267-50.884-68.267h-88.9c-2.509,0-4.54-2.193-4.275-4.685
			c2.901-27.349,14.447-46.515,24.909-46.515h68.267c4.71,0,8.533-3.823,8.533-8.533c0-4.71-3.823-8.533-8.533-8.533h-38.511
			l43.034-26.897c4.002-2.5,5.214-7.765,2.714-11.759c-2.492-3.994-7.765-5.205-11.759-2.714l-66.193,41.37H179.202
			c-2.065,0-4.062,0.751-5.623,2.116l-26.837,23.484H8.536c-2.961,0-5.7,1.527-7.253,4.045c-1.553,2.517-1.698,5.658-0.375,8.303
			l10.889,21.786h-3.26c-3.61,0-6.827,2.27-8.038,5.666s-0.162,7.194,2.637,9.472l93.867,76.8c1.527,1.246,3.43,1.929,5.402,1.929
			h401.067c4.71,0,8.533-3.823,8.533-8.533C512.002,340.89,508.179,337.067,503.469,337.067z M61.366,260.267H33.513
			c-1.613,0-3.089-0.913-3.814-2.364l-4.267-8.533c-1.417-2.833,0.649-6.17,3.814-6.17h27.853c1.613,0,3.098,0.913,3.814,2.355
			l4.267,8.533C66.605,256.922,64.54,260.267,61.366,260.267z M120.348,250.411l-8.149,8.533c-0.802,0.845-1.92,1.323-3.089,1.323
			H87.973c-1.613,0-3.098-0.913-3.814-2.355l-4.267-8.533c-1.417-2.842,0.64-6.178,3.814-6.178h33.553
			C121.014,243.2,122.934,247.697,120.348,250.411z M196.269,247.467c0,2.355-1.911,4.267-4.267,4.267H156.06
			c-3.891,0-5.751-4.787-2.876-7.415l28.006-25.6c0.785-0.725,1.809-1.118,2.876-1.118h7.936c2.355,0,4.267,1.903,4.267,4.267
			V247.467z M273.811,224.179l-16.546,25.6c-0.785,1.212-2.133,1.954-3.584,1.954h-36.079c-2.355,0-4.267-1.911-4.267-4.267v-25.6
			c0-2.364,1.911-4.267,4.267-4.267h52.625C273.607,217.6,275.646,221.346,273.811,224.179z"/>
	</g>
</g>
</svg>